<svg width="32" height="32" viewBox="0 0 32 32" fill="none" xmlns="http://www.w3.org/2000/svg">
  <!-- Fondo circular naranja/terracota -->
  <circle cx="16" cy="16" r="16" fill="#D97757"/>
  
  <!-- Cubo isométrico blanco -->
  <!-- Cara superior (más clara) -->
  <path d="M16 10L21 13L16 16L11 13L16 10Z" fill="white" fill-opacity="1"/>
  
  <!-- Cara frontal derecha (sombreada) -->
  <path d="M21 13L21 19L16 22L16 16L21 13Z" fill="white" fill-opacity="0.75"/>
  
  <!-- Cara frontal izquierda (intermedia) -->
  <path d="M16 16L11 13L11 19L16 22L16 16Z" fill="white" fill-opacity="0.85"/>
  
  <!-- Bordes del cubo -->
  <path d="M16 10L21 13M16 10L11 13M21 13L21 19M11 13L11 19M21 19L16 22M11 19L16 22M16 16L21 13M16 16L11 13" stroke="white" stroke-opacity="0.4" stroke-width="0.5" stroke-linecap="round"/>
  
  <!-- Símbolo de terminal ($_) en la cara frontal -->
  <text x="16" y="18.5" font-family="'Courier New', monospace" font-size="5.5" font-weight="bold" fill="white" text-anchor="middle" opacity="1">$_</text>
</svg>

